<svg width="24" height="24" viewBox="0 0 24 24" fill="none" xmlns="http://www.w3.org/2000/svg">
<path d="M23.5805 11.2078L22.0758 10.9655C21.9787 10.9491 21.8893 10.9021 21.8208 10.8313C21.7523 10.7605 21.7082 10.6697 21.695 10.572C21.6662 10.3874 21.6373 10.2022 21.5969 10.0233C21.5774 9.92729 21.5887 9.82755 21.629 9.73827C21.6694 9.64899 21.7369 9.57471 21.822 9.52598L23.1542 8.78631C23.255 8.73475 23.3335 8.64812 23.375 8.54271C23.4164 8.43731 23.4179 8.32039 23.3792 8.21396L23.1484 7.5793C23.1098 7.47258 23.0329 7.38398 22.9327 7.33069C22.8325 7.27739 22.7161 7.26318 22.6061 7.29082L21.1123 7.5793C21.0152 7.5981 20.9146 7.5852 20.8254 7.54251C20.7361 7.49981 20.663 7.42958 20.6167 7.34217C20.5301 7.18062 20.4378 7.01888 20.3397 6.85694C20.288 6.77274 20.264 6.67437 20.2712 6.57579C20.2785 6.4772 20.3166 6.3834 20.3801 6.30767L21.3777 5.15721C21.4551 5.07489 21.4996 4.96705 21.5028 4.85413C21.5059 4.7412 21.4676 4.63103 21.395 4.54447L20.9629 4.0252C20.8908 3.93788 20.7888 3.88055 20.6768 3.86444C20.5648 3.84833 20.4508 3.87459 20.357 3.93808L19.0479 4.72448C18.9638 4.77435 18.8659 4.7962 18.7686 4.78687C18.6712 4.77753 18.5793 4.7375 18.5061 4.67256C18.3677 4.55082 18.2234 4.42966 18.0792 4.31369C18.0025 4.25273 17.9471 4.16894 17.9212 4.07444C17.8953 3.97995 17.9001 3.87965 17.935 3.78807L18.4773 2.36009C18.5235 2.25648 18.5298 2.13952 18.4953 2.03151C18.4607 1.92349 18.3875 1.83199 18.2898 1.77447L17.7013 1.43348C17.6031 1.37771 17.4878 1.35989 17.3773 1.38338C17.2669 1.40688 17.1688 1.47007 17.1018 1.56099L16.1418 2.76338C16.0881 2.83906 16.0106 2.89445 15.9216 2.92062C15.8326 2.94679 15.7374 2.94221 15.6513 2.90762C15.6513 2.90762 15.3282 2.77492 15.0859 2.69357C14.993 2.6626 14.9123 2.60285 14.8555 2.52299C14.7988 2.44312 14.769 2.34727 14.7703 2.24931L14.7934 0.723239C14.8002 0.609732 14.7652 0.497662 14.6951 0.408168C14.6249 0.318675 14.5244 0.257945 14.4126 0.237436L13.7439 0.122043C13.632 0.102656 13.5168 0.124861 13.4201 0.184477C13.3234 0.244092 13.2518 0.337005 13.2189 0.44572L12.7227 1.89101C12.6908 1.98417 12.63 2.06471 12.5492 2.12087C12.4683 2.17703 12.3716 2.20586 12.2732 2.20315H11.7078C11.6095 2.20523 11.5131 2.17615 11.4324 2.12008C11.3516 2.06401 11.2907 1.98382 11.2583 1.89101L10.7621 0.44572C10.7292 0.337005 10.6576 0.244092 10.5609 0.184477C10.4642 0.124861 10.349 0.102656 10.2371 0.122043L9.5684 0.237436C9.45656 0.257945 9.35608 0.318675 9.28593 0.408168C9.21579 0.497662 9.18081 0.609732 9.18761 0.723239L9.21068 2.24931C9.21208 2.34751 9.18212 2.4436 9.12515 2.5236C9.06818 2.6036 8.98719 2.66334 8.89393 2.69415C8.76123 2.74607 8.47275 2.85627 8.33428 2.9082C8.17273 2.9659 7.98233 2.91974 7.82655 2.7403L6.87398 1.56676C6.80663 1.47622 6.70846 1.41349 6.598 1.39043C6.48755 1.36736 6.37247 1.38555 6.27452 1.44156L5.68601 1.78255C5.58803 1.83898 5.51437 1.92965 5.47922 2.03713C5.44407 2.1446 5.44991 2.26127 5.49562 2.3647L6.03796 3.79269C6.07228 3.88433 6.07682 3.98447 6.05092 4.07884C6.02502 4.17321 5.97001 4.25701 5.89372 4.3183C5.74948 4.43369 5.60524 4.55543 5.46677 4.67717C5.39362 4.74212 5.30173 4.78215 5.20435 4.79148C5.10697 4.80082 5.00915 4.77897 4.925 4.7291L3.63491 3.93058C3.54071 3.8686 3.42709 3.84324 3.31548 3.85929C3.20388 3.87534 3.102 3.93169 3.02909 4.0177L2.59695 4.53697C2.52435 4.62353 2.48601 4.7337 2.4892 4.84663C2.49239 4.95955 2.53689 5.06739 2.61426 5.14971L3.61183 6.30017C3.67669 6.37523 3.71565 6.46919 3.72292 6.56812C3.7302 6.66706 3.7054 6.7657 3.65222 6.84944C3.55413 7.0033 3.46182 7.16504 3.37527 7.33467C3.32822 7.4214 3.25495 7.49104 3.16594 7.53363C3.07692 7.57622 2.97672 7.58958 2.87966 7.5718L1.3859 7.28332C1.27585 7.25648 1.15978 7.27104 1.05977 7.32424C0.959762 7.37743 0.882807 7.46554 0.843555 7.5718L0.61277 8.20646C0.574043 8.31289 0.57554 8.42981 0.616979 8.53521C0.658419 8.64062 0.736945 8.72725 0.837786 8.77881L2.16826 9.51905C2.25417 9.56684 2.32242 9.64099 2.36294 9.73055C2.40346 9.82011 2.4141 9.92033 2.39328 10.0164C2.35866 10.201 2.32404 10.3805 2.2952 10.5651C2.28135 10.6625 2.23705 10.753 2.16866 10.8236C2.10026 10.8943 2.01127 10.9415 1.9144 10.9586L0.409679 11.2009C0.297702 11.2147 0.194513 11.2686 0.119202 11.3526C0.0438921 11.4366 0.00155853 11.545 3.44084e-05 11.6579V12.3341C-0.00136486 12.4477 0.039958 12.5577 0.115822 12.6424C0.191685 12.727 0.296559 12.78 0.409679 12.791L1.9144 13.0333C2.01156 13.0497 2.10093 13.0967 2.16945 13.1675C2.23797 13.2383 2.28203 13.3292 2.2952 13.4268C2.32404 13.6115 2.35289 13.7967 2.39328 13.9755C2.4128 14.0716 2.40157 14.1713 2.36118 14.2606C2.32078 14.3499 2.25328 14.4241 2.16826 14.4729L0.836055 15.2137C0.735214 15.2653 0.656688 15.3519 0.615249 15.4573C0.573809 15.5627 0.572312 15.6796 0.611039 15.786L0.841825 16.4207C0.880432 16.5274 0.95728 16.616 1.05748 16.6693C1.15768 16.7226 1.27409 16.7368 1.38417 16.7092L2.87793 16.4207C2.97504 16.4019 3.07563 16.4148 3.16486 16.4575C3.25409 16.5002 3.32725 16.5704 3.37354 16.6578C3.46009 16.8194 3.5524 16.9811 3.65048 17.1431C3.70227 17.2273 3.72623 17.3256 3.71899 17.4242C3.71174 17.5228 3.67364 17.6166 3.6101 17.6923L2.61253 18.8439C2.53516 18.9263 2.49066 19.0341 2.48747 19.147C2.48428 19.26 2.52262 19.3701 2.59522 19.4567L3.02736 19.9759C3.09938 20.0633 3.20138 20.1206 3.31341 20.1367C3.42545 20.1528 3.53947 20.1266 3.63318 20.0631L4.94231 19.2767C5.02646 19.2268 5.12428 19.205 5.22166 19.2143C5.31903 19.2236 5.41093 19.2636 5.48408 19.3286C5.62255 19.4503 5.76679 19.5715 5.91103 19.6875C5.98775 19.7484 6.04308 19.8322 6.06902 19.9267C6.09495 20.0212 6.09013 20.1215 6.05527 20.2131L5.51292 21.6411C5.46751 21.7448 5.46181 21.8616 5.49692 21.9693C5.53203 22.0769 5.60549 22.1679 5.70332 22.225L6.29183 22.5659C6.39004 22.6217 6.5053 22.6395 6.61577 22.616C6.72625 22.5925 6.82428 22.5293 6.89129 22.4384L7.86001 21.2476C7.98117 21.0976 8.17734 21.0341 8.33312 21.0976C8.52929 21.1783 8.66199 21.2245 8.90432 21.3058C8.99757 21.3367 9.07857 21.3964 9.13554 21.4764C9.1925 21.5564 9.22247 21.6525 9.22107 21.7507L9.19799 23.2768C9.19119 23.3903 9.22617 23.5023 9.29632 23.5918C9.36647 23.6813 9.46694 23.7421 9.57879 23.7626L10.2475 23.878C10.3594 23.8973 10.4746 23.8751 10.5713 23.8155C10.668 23.7559 10.7396 23.663 10.7725 23.5543L11.2687 22.1119C11.3006 22.0187 11.3613 21.9382 11.4422 21.882C11.5231 21.8259 11.6198 21.797 11.7182 21.7997H12.2836C12.3819 21.7977 12.4783 21.8267 12.559 21.8828C12.6398 21.9389 12.7007 22.0191 12.733 22.1119L13.2292 23.5543C13.2622 23.663 13.3338 23.7559 13.4305 23.8155C13.5272 23.8751 13.6423 23.8973 13.7543 23.878L14.423 23.7626C14.5348 23.7421 14.6353 23.6813 14.7054 23.5918C14.7756 23.5023 14.8106 23.3903 14.8038 23.2768L14.7807 21.7507C14.7793 21.6525 14.8093 21.5564 14.8662 21.4764C14.9232 21.3964 15.0042 21.3367 15.0974 21.3058C15.3398 21.2245 15.5013 21.161 15.6513 21.1033C15.8013 21.0456 15.986 21.0456 16.1302 21.2245L17.1111 22.4327C17.1784 22.5239 17.277 22.5871 17.388 22.6103C17.4989 22.6335 17.6146 22.615 17.7128 22.5584L18.3013 22.2175C18.3998 22.1611 18.4739 22.0701 18.5091 21.9622C18.5442 21.8543 18.5381 21.7372 18.4917 21.6336L17.9494 20.2056C17.9151 20.1138 17.9106 20.0136 17.9365 19.9192C17.9624 19.8247 18.0174 19.7408 18.0936 19.6794C18.2379 19.564 18.3821 19.4428 18.5206 19.3211C18.5937 19.2561 18.6856 19.2161 18.783 19.2068C18.8804 19.1975 18.9782 19.2193 19.0623 19.2692L20.3669 20.0579C20.4611 20.1199 20.5747 20.1452 20.6863 20.1292C20.7979 20.1131 20.8998 20.0568 20.9727 19.9708L21.4048 19.4515C21.4774 19.3649 21.5158 19.2548 21.5126 19.1418C21.5094 19.0289 21.4649 18.9211 21.3875 18.8388L20.3899 17.6883C20.3251 17.6132 20.2861 17.5193 20.2788 17.4203C20.2716 17.3214 20.2964 17.2228 20.3496 17.139C20.4476 16.9832 20.5399 16.8215 20.6265 16.6538C20.6735 16.5671 20.7468 16.4974 20.8358 16.4548C20.9248 16.4122 21.025 16.3989 21.1221 16.4167L22.6159 16.7051C22.7259 16.732 22.842 16.7174 22.942 16.6642C23.042 16.611 23.119 16.5229 23.1582 16.4167L23.389 15.782C23.4277 15.6756 23.4262 15.5587 23.3848 15.4532C23.3433 15.3478 23.2648 15.2612 23.164 15.2096L21.8318 14.47C21.7459 14.4222 21.6776 14.348 21.6371 14.2585C21.5966 14.1689 21.5859 14.0687 21.6068 13.9726C21.6414 13.788 21.676 13.6086 21.7048 13.4239C21.7187 13.3266 21.763 13.2361 21.8314 13.1654C21.8998 13.0947 21.9888 13.0475 22.0856 13.0305L23.5904 12.7881C23.7023 12.7743 23.8055 12.7204 23.8808 12.6364C23.9561 12.5524 23.9985 12.444 24 12.3312V11.6538C23.9937 11.542 23.9482 11.436 23.8715 11.3544C23.7948 11.2729 23.6918 11.221 23.5805 11.2078ZM12.0009 3.69172C13.8437 3.69093 15.6343 4.30361 17.0904 5.43312C18.5465 6.56263 19.5852 8.14471 20.0426 9.92985C20.0766 10.066 20.0792 10.2081 20.05 10.3453C20.0209 10.4826 19.9609 10.6114 19.8745 10.722C19.7881 10.8326 19.6777 10.922 19.5515 10.9835C19.4254 11.045 19.2869 11.0769 19.1466 11.0769H13.0746C12.9115 11.0769 12.7514 11.0337 12.6104 10.9517C12.4694 10.8697 12.3527 10.7518 12.2721 10.6101L9.26607 5.31876C9.19608 5.19574 9.1553 5.05828 9.14691 4.91699C9.13851 4.77571 9.16271 4.63438 9.21764 4.50394C9.27258 4.3735 9.35676 4.25744 9.4637 4.16472C9.57064 4.07201 9.69747 4.00512 9.83438 3.96924C10.5416 3.7837 11.2698 3.69042 12.0009 3.69172ZM3.6926 12C3.69157 10.8875 3.91395 9.78621 4.34656 8.76132C4.77917 7.73643 5.41321 6.80886 6.21105 6.03362C6.3118 5.93388 6.43416 5.85868 6.56865 5.81386C6.70315 5.76904 6.84615 5.7558 6.98659 5.77516C7.12703 5.79452 7.26112 5.84597 7.37847 5.92551C7.49581 6.00505 7.59327 6.11054 7.66327 6.23382L10.6773 11.5384C10.757 11.6779 10.7989 11.8357 10.7989 11.9962C10.7989 12.1568 10.757 12.3146 10.6773 12.4541L7.63846 17.7448C7.56791 17.8677 7.47001 17.9728 7.35234 18.0518C7.23467 18.1308 7.10039 18.1816 6.95991 18.2003C6.81943 18.2191 6.67652 18.2052 6.54225 18.1599C6.40799 18.1145 6.28597 18.0388 6.18566 17.9387C5.3956 17.1647 4.76809 16.2407 4.33998 15.2209C3.91186 14.2011 3.69177 13.106 3.6926 12ZM12.0009 20.3083C11.2571 20.3102 10.5162 20.2142 9.79746 20.0227C9.66058 19.9863 9.53391 19.9189 9.42725 19.8257C9.32059 19.7326 9.2368 19.6161 9.18236 19.4854C9.12792 19.3546 9.10429 19.2131 9.11331 19.0718C9.12232 18.9304 9.16373 18.793 9.23434 18.6703L12.268 13.3882C12.3492 13.2476 12.4659 13.131 12.6065 13.0499C12.7471 12.9689 12.9066 12.9264 13.0688 12.9266H19.1495C19.2897 12.9266 19.4282 12.9586 19.5542 13.0201C19.6803 13.0817 19.7907 13.1711 19.877 13.2817C19.9633 13.3922 20.0233 13.521 20.0524 13.6583C20.0815 13.7955 20.0789 13.9375 20.0449 14.0736C19.5865 15.8584 18.5472 17.4399 17.0908 18.5687C15.6343 19.6976 13.8436 20.3096 12.0009 20.3083Z" fill="#404040"/>
</svg>
