<svg width="24" height="24" viewBox="0 0 24 24" fill="none" xmlns="http://www.w3.org/2000/svg">
<path fill-rule="evenodd" clip-rule="evenodd" d="M8.297 0.398577C8.92628 0.135477 9.60147 0 10.2835 0C10.9654 0 11.6406 0.135477 12.2699 0.398577C12.8992 0.661677 13.47 1.04717 13.9493 1.5327C14.4286 2.01823 14.8068 2.59415 15.0621 3.22706C15.3166 3.85826 15.4438 4.53363 15.4363 5.21422L15.4282 16.9669L15.4281 16.9739C15.4139 17.8717 15.0476 18.7279 14.4082 19.3578C13.7687 19.9877 12.9075 20.3408 12.0103 20.3408C11.1131 20.3408 10.2518 19.9877 9.61238 19.3578C8.97296 18.7279 8.60664 17.8717 8.59247 16.9739L8.59235 16.9666V7.99435C8.59235 7.48455 9.0053 7.07127 9.5147 7.07127C10.0241 7.07127 10.4371 7.48455 10.4371 7.99435V16.9512C10.4452 17.3621 10.6136 17.7537 10.9064 18.0421C11.2008 18.3321 11.5972 18.4946 12.0103 18.4946C12.4233 18.4946 12.8198 18.3321 13.1141 18.0421C13.407 17.7536 13.5754 17.3619 13.5835 16.9509L13.5916 5.19737C13.5969 4.75921 13.5153 4.32435 13.3515 3.91801C13.1876 3.51166 12.9447 3.14191 12.637 2.83018C12.3293 2.51846 11.9628 2.27097 11.5588 2.10205C11.1548 1.93313 10.7213 1.84615 10.2835 1.84615C9.84561 1.84615 9.41211 1.93313 9.0081 2.10205C8.60409 2.27097 8.2376 2.51846 7.92988 2.83018C7.62216 3.14191 7.37933 3.51166 7.21546 3.91801C7.05159 4.32435 6.96994 4.75921 6.97525 5.19738L6.97539 5.20857L6.97532 17.0451L6.97522 17.0518C6.96559 17.7183 7.08843 18.3801 7.33663 18.9987C7.58482 19.6172 7.95341 20.1803 8.42096 20.655C8.8885 21.1297 9.44569 21.5067 10.0601 21.764C10.6745 22.0213 11.3339 22.1538 12 22.1538C12.666 22.1538 13.3255 22.0213 13.9399 21.764C14.5543 21.5067 15.1115 21.1297 15.579 20.655C16.0466 20.1803 16.4152 19.6172 16.6634 18.9987C16.9116 18.3801 17.0344 17.7183 17.0248 17.0518L17.0247 17.0451V5.98385C17.0247 5.47405 17.4376 5.06078 17.947 5.06078C18.4564 5.06078 18.8694 5.47405 18.8694 5.98385V17.032C18.8816 17.9408 18.7137 18.8431 18.3752 19.6866C18.0359 20.5322 17.532 21.3019 16.8928 21.9509C16.2537 22.5999 15.4919 23.1153 14.652 23.4671C13.812 23.8188 12.9105 24 12 24C11.0895 24 10.188 23.8188 9.34802 23.4671C8.50805 23.1153 7.74633 22.5999 7.10715 21.9509C6.46797 21.3019 5.96409 20.5322 5.62479 19.6866C5.28634 18.8431 5.11839 17.9408 5.13062 17.032V5.2139C5.12315 4.53342 5.25032 3.85816 5.50482 3.22706C5.76006 2.59415 6.13829 2.01823 6.61759 1.5327C7.09689 1.04717 7.66773 0.661677 8.297 0.398577Z" fill="black"/>
</svg>
