<svg width="24" height="24" viewBox="0 0 24 24" fill="none" xmlns="http://www.w3.org/2000/svg">
    <path d="M8.16568 12C8.87156 12 9.44379 11.4278 9.44379 10.7219C9.44379 10.016 8.87156 9.44378 8.16568 9.44378C7.4598 9.44378 6.88758 10.016 6.88758 10.7219C6.88758 11.4278 7.4598 12 8.16568 12Z"
          fill="black"/>
    <path d="M12.0027 18.8165C9.58385 18.8165 7.54953 17.2439 6.90568 15.0978C6.88767 15.0339 6.88484 14.9667 6.89739 14.9016C6.90995 14.8364 6.93755 14.7751 6.978 14.7225C7.01844 14.6699 7.07062 14.6275 7.13037 14.5986C7.19012 14.5697 7.25578 14.5552 7.32213 14.5562H16.6784C16.7448 14.5552 16.8104 14.5697 16.8702 14.5986C16.9299 14.6275 16.9821 14.6699 17.0225 14.7225C17.063 14.7751 17.0906 14.8364 17.1031 14.9016C17.1157 14.9667 17.1129 15.0339 17.0949 15.0978C16.4563 17.2439 14.4215 18.8165 12.0027 18.8165Z"
          fill="black"/>
    <path d="M15.8343 12C16.5402 12 17.1124 11.4278 17.1124 10.7219C17.1124 10.016 16.5402 9.44378 15.8343 9.44378C15.1284 9.44378 14.5562 10.016 14.5562 10.7219C14.5562 11.4278 15.1284 12 15.8343 12Z"
          fill="black"/>
    <path fill-rule="evenodd" clip-rule="evenodd"
          d="M12 1.84615C6.39219 1.84615 1.84615 6.39219 1.84615 12C1.84615 17.6078 6.39219 22.1538 12 22.1538C17.6078 22.1538 22.1538 17.6078 22.1538 12C22.1538 6.39219 17.6078 1.84615 12 1.84615ZM0 12C0 5.37258 5.37258 0 12 0C18.6274 0 24 5.37258 24 12C24 18.6274 18.6274 24 12 24C5.37258 24 0 18.6274 0 12Z"
          fill="black"/>
</svg>
