<svg width="33" height="32" viewBox="0 0 33 32" fill="none" xmlns="http://www.w3.org/2000/svg">
<path fill-rule="evenodd" clip-rule="evenodd" d="M6.00309 10.6266C7.26214 4.8106 12.604 0.5 18.9313 0.5C26.1751 0.5 32.1447 6.14857 32.1226 13.2435C32.12 15.7063 31.3098 18.2164 29.9348 20.2596L30.9469 23.8573C30.9928 24.0147 31.0265 24.2904 31.039 24.4538C31.039 24.9945 30.8242 25.5129 30.4419 25.8952C30.0596 26.2775 29.5411 26.4923 29.0005 26.4923C28.7796 26.4698 28.4109 26.4091 28.2046 26.3274L24.3447 24.9567C24.314 24.9439 24.2809 24.9373 24.2476 24.9375C24.2142 24.9375 24.1768 24.9436 24.1455 24.9553C23.9267 25.0382 23.1259 25.3314 22.3032 25.5571C21.517 25.7728 19.9697 26.1288 18.7294 26.1288C11.4254 26.1288 5.71982 20.2874 5.71982 13.2471C5.72029 12.3662 5.81526 11.4872 6.00309 10.6266ZM18.9313 3.5C13.965 3.5 9.88413 6.87522 8.93494 11.2624L8.93463 11.2638L8.93432 11.2652C8.79214 11.9163 8.72023 12.5807 8.71982 13.2471C8.71982 18.6318 13.0834 23.1288 18.7294 23.1288C19.5487 23.1288 20.7745 22.8656 21.5095 22.664C22.2048 22.4733 22.9089 22.2158 23.0839 22.1494L23.0867 22.1484C23.455 22.0095 23.8452 21.9381 24.2388 21.9375C24.6555 21.9362 25.0685 22.0151 25.4552 22.1698L27.5662 22.9181L26.9569 20.7519L26.9562 20.7495C26.8073 20.2137 26.9246 19.7338 27.0056 19.4806C27.0971 19.1944 27.2306 18.938 27.3323 18.7635C27.3954 18.6583 27.468 18.5487 27.541 18.4502C28.5705 16.9074 29.1209 15.0943 29.1226 13.239C29.1399 7.92324 24.6369 3.5 18.9313 3.5Z" fill="#D5D5D5"/>
<path d="M5.17585 15.1141C5.57877 14.3903 5.3186 13.4769 4.59476 13.074C3.87092 12.6711 2.9575 12.9312 2.55458 13.6551C1.53726 15.4827 1.04513 17.556 1.1326 19.6459C1.21407 21.5923 1.79532 23.4824 2.8171 25.1354C2.86166 25.2075 2.90707 25.2791 2.95331 25.3503L2.23676 29.0729C2.16736 29.4294 2.19348 29.8032 2.31437 30.1458C2.43584 30.49 2.66176 30.8073 2.94153 31.0417C3.30687 31.3328 3.77513 31.5019 4.2421 31.5C4.50133 31.4996 4.75791 31.4486 4.99742 31.3499L8.60511 29.9378C9.99283 30.4635 11.5415 30.8 13.1193 30.8C15.2758 30.802 17.3944 30.2331 19.2599 29.1511C19.9765 28.7354 20.2205 27.8175 19.8048 27.1009C19.3892 26.3843 18.4713 26.1404 17.7547 26.556C16.347 27.3725 14.7482 27.8017 13.1209 27.8H13.1193C11.9313 27.8 10.714 27.5381 9.58921 27.1023C8.97662 26.8467 8.28814 26.8393 7.66961 27.0824L7.66717 27.0834L5.51184 27.9269C5.53197 27.8222 5.55235 27.7163 5.57277 27.6102C5.67144 27.0974 5.77088 26.5811 5.8473 26.1856C5.88553 25.9877 5.9466 25.674 5.97018 25.5529C5.96471 25.5807 5.98404 25.4817 5.97018 25.5529C5.97112 25.5486 5.97522 25.5272 5.97018 25.5529C6.08508 25.033 5.93072 24.5716 5.85398 24.3895C5.76214 24.1716 5.64151 23.9766 5.54614 23.8326C4.68818 22.5555 4.19432 21.0576 4.12998 19.5205C4.06564 17.9833 4.42761 16.4584 5.17585 15.1141Z" fill="#D5D5D5"/>
</svg>
