<svg width="18" height="18" viewBox="0 0 18 18" fill="none" xmlns="http://www.w3.org/2000/svg">
    <path fill-rule="evenodd" clip-rule="evenodd"
          d="M0 2.65943C2.414e-06 2.16237 0.402948 1.75943 0.900004 1.75943L17.1 1.75951C17.5971 1.75951 18 2.16246 18 2.65951C18 3.15657 17.5971 3.55951 17.1 3.55951L0.899996 3.55943C0.402939 3.55943 -2.46762e-06 3.15648 0 2.65943ZM0 8.74285C2.414e-06 8.2458 0.402948 7.84286 0.900004 7.84286L17.1 7.84294C17.5971 7.84294 18 8.24589 18 8.74294C18 9.24 17.5971 9.64294 17.1 9.64294L0.899996 9.64286C0.402939 9.64286 -2.36033e-06 9.23991 0 8.74285ZM0 14.8263C2.62858e-06 14.3292 0.402949 13.9263 0.900005 13.9263L17.1 13.9264C17.5971 13.9264 18 14.3293 18 14.8264C18 15.3234 17.597 15.7264 17.1 15.7264L0.899995 15.7263C0.402939 15.7263 -2.6822e-06 15.3233 0 14.8263Z"
          fill="#404040"/>
</svg>
