<svg width="33" height="32" viewBox="0 0 33 32" fill="none" xmlns="http://www.w3.org/2000/svg">
<path fill-rule="evenodd" clip-rule="evenodd" d="M16.989 0.74041C12.5805 0.74041 9.26022 4.17713 9.59365 8.70124C9.89472 12.7817 13.0669 16.4416 16.989 16.4416C20.9126 16.4416 24.0779 12.7795 24.3841 8.70327C24.7182 4.2532 21.407 0.74041 16.989 0.74041ZM16.989 3.74041C14.2914 3.74041 12.3827 5.72809 12.5855 8.48062C12.8007 11.3963 15.0117 13.4416 16.989 13.4416C18.9647 13.4416 21.1732 11.3972 21.3926 8.4786C21.5948 5.78433 19.677 3.74041 16.989 3.74041Z" fill="#D5D5D5"/>
<path fill-rule="evenodd" clip-rule="evenodd" d="M16.989 17.6753C10.7464 17.6753 3.94117 21.0986 2.6662 28.0742C2.53711 28.7804 2.66048 29.5488 3.09658 30.1776C3.55525 30.8388 4.3076 31.2596 5.19022 31.2596H28.7877C29.6702 31.2596 30.4228 30.8392 30.8818 30.1778C31.3182 29.5489 31.4415 28.7803 31.3124 28.0741C30.0367 21.0986 23.2317 17.6753 16.989 17.6753ZM5.6896 28.2596H28.289C27.2051 23.4649 22.282 20.6753 16.989 20.6753C11.6959 20.6753 6.77286 23.465 5.6896 28.2596Z" fill="#D5D5D5"/>
</svg>
