<svg width="24" height="24" viewBox="0 0 24 24" fill="none" xmlns="http://www.w3.org/2000/svg">
<path d="M23.9704 1.06769C24.0245 1.32157 24.0042 1.58564 23.912 1.82822L23.911 1.83085L15.8497 23.1303L15.8445 23.1437C15.7429 23.3999 15.5654 23.6188 15.3358 23.771C15.1061 23.9233 14.8353 24.0015 14.5599 23.9953C14.2844 23.989 14.0175 23.8986 13.795 23.7361C13.5809 23.5798 13.4179 23.3641 13.3258 23.1161L9.74302 14.2873L9.73451 14.2655L9.71301 14.2571L0.887382 10.6788C0.638492 10.5882 0.4215 10.4261 0.263819 10.2126C0.0986437 9.98894 0.00661962 9.71969 0.000343794 9.44171C-0.00593192 9.16373 0.0738443 8.8906 0.228759 8.6597C0.383675 8.4288 0.606156 8.25141 0.865754 8.15182L0.869662 8.15033L22.1691 0.0890123L22.1712 0.0882167C22.414 -0.00416833 22.6783 -0.0245129 22.9323 0.0296487C23.1871 0.0839663 23.4207 0.210896 23.6049 0.395101C23.7891 0.579306 23.916 0.81291 23.9704 1.06769Z" fill="#37ABD0"/>
</svg>
