<svg width="18" height="18" viewBox="0 0 18 18" fill="none" xmlns="http://www.w3.org/2000/svg">
<path fill-rule="evenodd" clip-rule="evenodd" d="M3.34533 1.26857C4.58318 0.441465 6.03849 0 7.52723 0C9.52353 0.000127083 11.4381 0.793208 12.8497 2.2048C14.2613 3.61639 15.0543 5.53088 15.0545 7.52718C15.0545 9.01592 14.613 10.4713 13.7859 11.7091C13.679 11.8691 13.5662 12.0246 13.448 12.1752L17.7364 16.4636C18.0879 16.8151 18.0879 17.3849 17.7364 17.7364C17.3849 18.0879 16.8151 18.0879 16.4636 17.7364L12.1752 13.448C11.6388 13.8691 11.0447 14.2177 10.4078 14.4815C9.03236 15.0512 7.51888 15.2003 6.05874 14.9098C4.5986 14.6194 3.25738 13.9025 2.20468 12.8498C1.15198 11.7971 0.435077 10.4559 0.144637 8.99572C-0.145803 7.53558 0.00326141 6.02211 0.57298 4.64669C1.1427 3.27126 2.10748 2.09567 3.34533 1.26857ZM7.52718 1.8C6.39446 1.80001 5.28718 2.13591 4.34536 2.76521C3.40352 3.39453 2.66944 4.289 2.23596 5.33552C1.80248 6.38203 1.68906 7.53359 1.91005 8.64456C2.13104 9.75554 2.6765 10.776 3.47747 11.577C4.27844 12.378 5.29893 12.9234 6.40991 13.1444C7.52088 13.3654 8.67243 13.252 9.71895 12.8185C10.7655 12.385 11.6599 11.651 12.2893 10.7091C12.9186 9.76729 13.2545 8.66001 13.2545 7.52729M7.52718 1.8C9.0461 1.80011 10.5028 2.40355 11.5769 3.47759C12.6509 4.55163 13.2544 6.00837 13.2545 7.52729" fill="#404040"/>
</svg>
