<svg width="28" height="28" viewBox="0 0 28 28" fill="none" xmlns="http://www.w3.org/2000/svg">
<path fill-rule="evenodd" clip-rule="evenodd" d="M12.7713 2.15385C6.86539 2.15385 2.13614 6.82032 2.1539 12.5153L2.1539 12.517V12.5187C2.15383 14.4992 2.73229 16.4365 3.8179 18.0925C3.88331 18.1821 3.94976 18.2834 4.00663 18.3787C4.09896 18.5402 4.21572 18.7703 4.29341 19.0176C4.36374 19.2415 4.45123 19.6248 4.33828 20.0405L4.33765 20.0428L3.49865 23.0777L6.38956 22.0344C6.72992 21.8949 7.09449 21.8237 7.46253 21.825C7.80755 21.8256 8.14956 21.8894 8.47164 22.0132L8.47319 22.0138C8.6532 22.0833 9.37432 22.3512 10.0855 22.5502C10.7821 22.7452 12.0705 22.9813 12.9727 22.9813C13.5675 22.9813 14.0497 23.4635 14.0497 24.0582C14.0497 24.653 13.5675 25.1352 12.9727 25.1352C11.8156 25.1352 10.3243 24.8536 9.50499 24.6243C8.70184 24.3996 7.91082 24.1054 7.69851 24.0235C7.62185 23.9941 7.54045 23.9789 7.45833 23.9788L7.45688 23.9788L7.45544 23.9788C7.3674 23.9785 7.2802 23.996 7.19912 24.0304L3.35283 25.4202C3.17983 25.4907 2.94021 25.5424 2.75426 25.5619C2.54032 25.5612 2.27089 25.5179 2.07375 25.4349C1.87658 25.3519 1.69785 25.2305 1.54791 25.0779C1.39798 24.9253 1.27981 24.7445 1.20025 24.5459C1.1207 24.3473 1.08182 24.1025 1.08494 23.8886C1.09504 23.7536 1.12145 23.5878 1.15895 23.4577L2.22112 19.6156C2.21601 19.6032 2.22815 19.6308 2.22112 19.6156C2.20491 19.5806 2.16769 19.5023 2.147 19.4656C2.12321 19.4264 2.09757 19.3883 2.07017 19.3515C0.743139 17.339 0.000306932 14.9309 5.57609e-05 12.5203C-0.0206444 5.58369 5.72472 0 12.7713 0C18.9217 0 24.0802 4.26224 25.2893 9.95924C25.4701 10.8031 25.5614 11.6637 25.5617 12.5267C25.5619 13.1215 25.0799 13.6038 24.4851 13.604C23.8904 13.6042 23.408 13.1222 23.4078 12.5274C23.4076 11.8156 23.3322 11.1058 23.183 10.4097L23.1826 10.4075C22.1876 5.71681 17.917 2.15385 12.7713 2.15385ZM19.852 11.7039C20.4467 11.7039 20.9289 12.1861 20.9289 12.7808V18.775H26.9231C27.5178 18.775 28 19.2572 28 19.852C28 20.4467 27.5178 20.9289 26.9231 20.9289H20.9289V26.9231C20.9289 27.5178 20.4467 28 19.852 28C19.2572 28 18.775 27.5178 18.775 26.9231V20.9289H12.7808C12.1861 20.9289 11.7039 20.4467 11.7039 19.852C11.7039 19.2572 12.1861 18.775 12.7808 18.775H18.775V12.7808C18.775 12.1861 19.2572 11.7039 19.852 11.7039Z" fill="black"/>
</svg>
