<svg width="19" height="18" viewBox="0 0 19 18" fill="none" xmlns="http://www.w3.org/2000/svg">
    <path fill-rule="evenodd" clip-rule="evenodd"
          d="M7.4531 1.97573C7.78533 1.0002 8.66665 0 9.98907 0C11.3128 0 12.1935 1.00173 12.527 1.97572C13.2372 2.27886 14.0715 2.76281 14.7323 3.62715C15.4294 4.53903 15.8686 5.78858 15.8686 7.49488C15.8686 9.13094 16.0419 9.99514 16.2786 10.5686C16.4868 11.0731 16.7551 11.3985 17.1774 11.9106C17.2388 11.985 17.3034 12.0634 17.3716 12.1468C18.3094 13.2955 17.4115 14.8846 16.0053 14.8846H13.3701C13.3047 15.6829 12.9584 16.4358 12.3878 17.0064C11.7516 17.6426 10.8888 18 9.98907 18C9.08937 18 8.22652 17.6426 7.59034 17.0064C7.01976 16.4358 6.67343 15.6829 6.60807 14.8846H3.97676C2.57546 14.8846 1.66052 13.3045 2.6065 12.1468C2.67472 12.0633 2.73945 11.9848 2.80087 11.9104C3.22307 11.3984 3.49149 11.073 3.6999 10.5684C3.93682 9.99481 4.11048 9.13009 4.11146 7.49436C4.11155 5.78717 4.55011 4.53778 5.24729 3.62617C5.90821 2.76197 6.74278 2.27887 7.4531 1.97573ZM4.16646 13.0846L4.17878 13.0698C4.59582 12.5677 5.04488 12.0271 5.36357 11.2556C5.73014 10.3681 5.91046 9.23368 5.91146 7.4954C5.91146 6.10967 6.26107 5.2636 6.67708 4.71965C7.10056 4.16592 7.65996 3.83651 8.23083 3.60143C8.61239 3.44444 8.99743 3.09563 9.13918 2.61261L9.13984 2.61037C9.29572 2.07407 9.67346 1.8 9.98907 1.8C10.3047 1.8 10.6828 2.07381 10.841 2.6121L10.8417 2.61439C10.9824 3.0889 11.3626 3.44239 11.7493 3.60146C12.3187 3.83585 12.8784 4.16589 13.3023 4.72041C13.7188 5.26517 14.0686 6.11111 14.0686 7.49488C14.0686 9.23317 14.2484 10.3677 14.6147 11.2553C14.9332 12.0271 15.3824 12.5678 15.7994 13.0699L15.8117 13.0846H4.16646ZM8.42102 14.8846C8.47744 15.2041 8.63062 15.5011 8.86313 15.7336C9.16175 16.0322 9.56676 16.2 9.98907 16.2C10.4114 16.2 10.8164 16.0322 11.115 15.7336C11.3475 15.5011 11.5007 15.2041 11.5571 14.8846H8.42102Z"
          fill="#404040"/>
</svg>
