<?xml version="1.0" encoding="utf-8"?>
<!-- Generator: Adobe Illustrator 22.0.1, SVG Export Plug-In . SVG Version: 6.00 Build 0)  -->
<svg version="1.1" id="레이어_1" xmlns="http://www.w3.org/2000/svg" xmlns:xlink="http://www.w3.org/1999/xlink" x="0px"
	 y="0px" viewBox="0 0 1500 1000" style="enable-background:new 0 0 1500 1000;" xml:space="preserve">
<style type="text/css">
	.st0{fill:none;}
	.st1{fill:#000000;opacity:0.1;}
</style>
<g>
	<path class="st0" d="M1070.7,307.6c-5.1-1.7-8.6-6.5-8.6-11.9l0-20.2c0-107.7-87.6-196.7-195.3-198.4
		c-74.2-1.2-142.5,39.3-178.2,105.6c-7.6,14-24.4,20-39.3,13.9c-46.6-19.2-141.5-46.6-292.1-38.2c27,4,58.2,8.9,90,14.5
		c52.6,9.2,96.5,18.3,130.6,27c43.2,11.1,70.3,21.7,82.9,32.2c1.3,0.8,2.6,1.9,3.7,3.3l4.7,4.2l-2.6,3.1c0,0.3-0.1,0.5-0.1,0.8
		c-1.6,8.1-1.4,13.6-1.3,21.3c0.1,2.9,0.2,6.2,0.1,9.9c-0.2,42.9,13.1,83.7,38.4,118.2c9.4,12.8,9.9,30.4,1.3,43.8
		c-44.1,68.4-59.8,151.1-44.2,232.9C684.1,793.2,778.5,890,901.1,916.1c96,20.5,193.8-2.4,268.4-62.8
		c74.6-60.4,117.4-150,117.4-245.8C1286.8,471.2,1200,350.7,1070.7,307.6z M820.1,187.1c-8.3,0-15-6.7-15-15s6.7-15,15-15
		c8.3,0,15,6.7,15,15S828.4,187.1,820.1,187.1z"/>
	<ellipse transform="matrix(0.9871 -0.1602 0.1602 0.9871 -16.9785 133.5861)" class="st1" cx="820.1" cy="172.1" rx="15" ry="15"/>
	<path class="st1" d="M1242,409.1c-20.4-27.8-44.9-52.3-72.7-72.7c-26.7-19.6-56-35-87.1-46l0-14.8c0-57.7-22.3-112.2-62.8-153.3
		c-40.5-41.1-94.5-64.2-152.1-65.1c-40.6-0.7-80.5,10.2-115.5,31.4c-34,20.6-61.8,49.9-80.6,84.7c-2.7,5-8.7,7.1-14,4.9
		c-56.6-23.3-182.2-58.5-387.2-31.5l-77.5,10.2l77.5,9.6c0.8,0.1,85.1,10.6,173.9,26.1c143.1,25,187.9,43.3,201.8,53.1
		c-0.9,7.2-0.8,13-0.6,19.5c0.1,2.9,0.1,5.9,0.1,9.4c-0.2,47.2,14.4,92.2,42.3,130.1c4.5,6.2,4.8,14.7,0.6,21.1
		c-46.8,72.7-63.6,160.6-47.1,247.4c12.2,64.2,42.8,122.9,88.4,169.8c45.7,47,103.6,79,167.5,92.6c24.8,5.3,49.5,7.9,74,7.9
		c27.3,0,54.4-3.3,80.9-9.9c47.9-11.9,91.7-33.7,130.2-64.8c79.3-64.2,124.8-159.4,124.8-261.4
		C1306.8,535.6,1284.4,466.9,1242,409.1z M1169.4,853.3c-74.6,60.4-172.4,83.2-268.4,62.8C778.5,890,684.1,793.2,660.7,669.5
		c-15.5-81.8,0.2-164.5,44.2-232.9c8.6-13.4,8.1-31-1.3-43.8c-25.3-34.4-38.6-75.3-38.4-118.2c0-3.7-0.1-7-0.1-9.9
		c-0.2-7.7-0.3-13.3,1.3-21.3c0.1-0.3,0.1-0.5,0.1-0.8l2.6-3.1l-4.7-4.2c-1-1.3-2.3-2.4-3.7-3.3c-12.5-10.5-39.7-21-82.9-32.2
		c-34-8.8-78-17.9-130.6-27c-31.8-5.5-62.9-10.5-90-14.5c150.5-8.4,245.5,19,292.1,38.2c14.8,6.1,31.7,0.1,39.3-13.9
		c35.7-66.3,104-106.8,178.2-105.6c107.7,1.7,195.3,90.7,195.3,198.4l0,20.2c0,5.4,3.4,10.2,8.6,11.9
		c129.3,43,216.1,163.6,216.1,299.9C1286.8,703.4,1244,793,1169.4,853.3z"/>
</g>
</svg>
