<svg xmlns="http://www.w3.org/2000/svg" width="54" height="54" fill="none">
    <mask id="a" width="54" height="54" x="0" y="0" maskUnits="userSpaceOnUse">
        <path fill="#C4C4C4" d="M27 0c27 0 27 0 27 27s0 27-27 27S0 54 0 27 0 0 27 0z"/>
    </mask>
    <g mask="url(#a)">
        <path fill="#37ABD0" d="M-.78-.78h55.62v55.62H-.78z"/>
    </g>
    <path fill="#fff"
          d="M32.51 20.95l1.5.11-1.5-.11zm-10.25 0l-1.5.1 1.5-.1zM16.22 38.1l1.48.27-1.48-.27zm22.33 0l1.48-.27-1.48.27zm-7.53-17.28c-.19 2.47-2.05 4.14-3.63 4.14v3c3.53 0 6.35-3.3 6.62-6.91l-3-.23zm-3.63 4.14c-1.6 0-3.45-1.68-3.64-4.13l-2.99.22c.27 3.62 3.09 6.9 6.63 6.9v-3zm-3.64-4.13a3.49 3.49 0 013.64-3.91v-3a6.48 6.48 0 00-6.63 7.13l3-.22zm3.64-3.91c2.22 0 3.8 1.68 3.63 3.9l2.99.23a6.51 6.51 0 00-6.62-7.13v3zm0 11.72c-5.48 0-11.51 3-12.64 9.2l2.95.53c.77-4.22 5.03-6.73 9.69-6.73v-3zm-12.64 9.2c-.12.65-.01 1.37.4 1.97a2.38 2.38 0 001.98 1.02v-3a.63.63 0 01.48.27c.1.13.1.24.09.27l-2.95-.54zm2.38 3h20.5v-3h-20.5v3zm20.5 0c.84 0 1.55-.4 1.99-1.03.41-.6.53-1.32.4-1.98l-2.95.54c0-.03 0-.14.09-.27a.63.63 0 01.48-.27v3zm2.4-3c-1.14-6.2-7.17-9.2-12.64-9.2v3c4.65 0 8.91 2.5 9.68 6.73l2.96-.54z"/>
</svg>