<svg width="54" height="54" viewBox="0 0 54 54" fill="none" xmlns="http://www.w3.org/2000/svg">
<mask id="mask0" mask-type="alpha" maskUnits="userSpaceOnUse" x="0" y="0" width="54" height="54">
<path d="M27 4.69885e-07C54 -0.000114231 54 2.65199e-06 54 27C54 54 54 54 27 54C-2.65199e-06 54 -8.28097e-05 54 2.90067e-07 27C8.33898e-05 0 -2.65199e-06 0.000115171 27 4.69885e-07Z" fill="#C4C4C4"/>
</mask>
<g mask="url(#mask0)">
<rect x="-0.784302" y="-0.784279" width="55.6163" height="55.6163" fill="#37ABD0"/>
</g>
<path d="M32.512 20.9473L34.0078 21.0596L34.0078 21.0595L32.512 20.9473ZM22.2588 20.9473L20.7629 21.0575L20.7629 21.0576L22.2588 20.9473ZM16.2211 38.1127L17.6967 38.3824L17.6967 38.3823L16.2211 38.1127ZM38.5503 38.1127L40.0259 37.8429L40.0259 37.8428L38.5503 38.1127ZM31.0162 20.8349C30.8314 23.2954 28.9748 24.9659 27.3854 24.9659V27.9659C30.9227 27.9659 33.7359 24.6777 34.0078 21.0596L31.0162 20.8349ZM27.3854 24.9659C25.7945 24.9659 23.9361 23.2944 23.7548 20.8369L20.7629 21.0576C21.0302 24.6799 23.8498 27.9659 27.3854 27.9659V24.9659ZM23.7548 20.837C23.587 18.561 25.1533 16.9286 27.3854 16.9286V13.9286C23.4424 13.9286 20.4646 17.01 20.7629 21.0575L23.7548 20.837ZM27.3854 16.9286C29.6081 16.9286 31.1834 18.6086 31.0162 20.835L34.0078 21.0595C34.3067 17.0774 31.338 13.9286 27.3854 13.9286V16.9286ZM27.3854 28.6451C21.9068 28.6451 15.877 31.6524 14.7456 37.843L17.6967 38.3823C18.4691 34.1564 22.7274 31.6451 27.3854 31.6451V28.6451ZM14.7456 37.8429C14.6251 38.5018 14.7393 39.2238 15.1514 39.8181C15.5861 40.4448 16.2998 40.8429 17.1323 40.8429V37.8429C17.1972 37.8429 17.2919 37.859 17.393 37.9123C17.4923 37.9647 17.5669 38.0368 17.6165 38.1083C17.7109 38.2443 17.7024 38.3512 17.6967 38.3824L14.7456 37.8429ZM17.1323 40.8429H37.6386V37.8429H17.1323V40.8429ZM37.6386 40.8429C38.4709 40.8429 39.1848 40.4452 39.6198 39.8183C40.0322 39.224 40.1463 38.5018 40.0259 37.8429L37.0748 38.3824C37.0691 38.3512 37.0606 38.2442 37.1551 38.108C37.2047 38.0365 37.2794 37.9645 37.3786 37.9122C37.4795 37.8589 37.574 37.8429 37.6386 37.8429V40.8429ZM40.0259 37.8428C38.8937 31.6524 32.8641 28.6451 27.3854 28.6451V31.6451C32.0434 31.6451 36.3019 34.1564 37.0748 38.3825L40.0259 37.8428Z" fill="white"/>
</svg>
