<svg width="18" height="18" viewBox="0 0 18 18" fill="none" xmlns="http://www.w3.org/2000/svg">
<path d="M16 0H2C0.9 0 0 0.9 0 2V16C0 17.1 0.9 18 2 18H16C17.1 18 18 17.1 18 16V2C18 0.9 17.1 0 16 0ZM7.71 13.29C7.61749 13.3827 7.5076 13.4563 7.38662 13.5064C7.26565 13.5566 7.13597 13.5824 7.005 13.5824C6.87403 13.5824 6.74435 13.5566 6.62338 13.5064C6.5024 13.4563 6.39251 13.3827 6.3 13.29L2.71 9.7C2.61742 9.60742 2.54398 9.49751 2.49387 9.37654C2.44377 9.25558 2.41798 9.12593 2.41798 8.995C2.41798 8.86407 2.44377 8.73442 2.49387 8.61346C2.54398 8.49249 2.61742 8.38258 2.71 8.29C2.80258 8.19742 2.91249 8.12398 3.03346 8.07387C3.15442 8.02377 3.28407 7.99798 3.415 7.99798C3.54593 7.99798 3.67558 8.02377 3.79654 8.07387C3.91751 8.12398 4.02742 8.19742 4.12 8.29L7 11.17L13.88 4.29C14.067 4.10302 14.3206 3.99798 14.585 3.99798C14.8494 3.99798 15.103 4.10302 15.29 4.29C15.477 4.47698 15.582 4.73057 15.582 4.995C15.582 5.25943 15.477 5.51302 15.29 5.7L7.71 13.29Z" fill="#1E2019"/>
</svg>
