<svg width="175" height="39" viewBox="0 0 175 39" fill="none" xmlns="http://www.w3.org/2000/svg">
    <g filter="url(#filter0_d)">
        <path d="M8.22 4.044C6.996 4.044 5.916 4.656 5.916 6.024V28.092C5.916 29.46 6.996 30.072 8.22 30.072C9.444 30.072 10.524 29.46 10.524 28.092V21.504L13.152 18.804L21.54 29.28C22.404 30.36 23.7 30.252 24.636 29.496C25.644 28.704 25.896 27.48 24.96 26.4L16.14 15.888L24.132 7.572C24.924 6.744 24.744 5.556 23.952 4.728C23.196 3.936 21.864 3.756 21.072 4.62L10.524 15.96V6.024C10.524 4.656 9.444 4.044 8.22 4.044ZM32.1966 4.044C30.9726 4.044 29.8926 4.656 29.8926 6.024V28.092C29.8926 29.46 30.9726 30.072 32.1966 30.072C33.4206 30.072 34.5006 29.46 34.5006 28.092V6.024C34.5006 4.656 33.4206 4.044 32.1966 4.044ZM55.418 4.044C54.266 4.044 53.078 4.62 52.646 6.204L47.93 23.16L43.502 5.556C43.106 4.044 41.882 3.864 40.694 4.152C39.398 4.476 38.714 5.484 39.11 6.888L44.906 27.876C45.338 29.496 46.526 30.072 47.678 30.072C48.794 30.072 50.018 29.496 50.45 27.912L55.382 10.236L60.098 27.84C60.53 29.496 61.718 30.072 62.834 30.072C63.95 30.072 65.138 29.496 65.57 27.912L71.51 6.672C71.87 5.376 71.294 4.368 70.034 4.116C68.846 3.864 67.73 4.332 67.406 5.628L62.834 23.124L58.154 6.204C57.722 4.62 56.534 4.044 55.418 4.044ZM78.3567 4.044C77.1327 4.044 76.0527 4.656 76.0527 6.024V28.092C76.0527 29.46 77.1327 30.072 78.3567 30.072C79.5807 30.072 80.6607 29.46 80.6607 28.092V6.024C80.6607 4.656 79.5807 4.044 78.3567 4.044ZM102.982 4.26H85.2341C84.5861 4.26 84.2981 4.764 84.2981 5.412C84.2981 6.06 84.5861 6.564 85.2341 6.564H92.7941V28.92C92.7941 29.676 93.4061 30 94.0901 30C94.8101 30 95.4221 29.676 95.4221 28.92V6.564H102.982C103.63 6.564 103.918 6.06 103.918 5.412C103.918 4.764 103.63 4.26 102.982 4.26ZM114.76 4.116C114.04 4.116 113.464 4.404 113.14 5.268L104.176 28.344C103.888 29.1 104.212 29.676 104.86 29.892C105.58 30.144 106.264 30 106.552 29.244L109.288 22.044H120.088L122.788 29.208C123.076 30 123.796 30.144 124.516 29.892C125.2 29.676 125.56 29.064 125.272 28.308L116.344 5.268C116.02 4.404 115.48 4.116 114.76 4.116ZM114.724 7.248C115.228 8.868 115.876 10.668 116.632 12.612L119.296 19.812H110.116L112.852 12.612C113.644 10.596 114.22 8.976 114.724 7.248ZM131.217 4.116C130.533 4.116 129.921 4.44 129.921 5.196V27.48C129.921 29.28 130.533 29.856 132.333 29.856H144.609C145.293 29.856 145.581 29.352 145.581 28.704C145.581 28.056 145.293 27.552 144.609 27.552H132.549V5.196C132.549 4.44 131.937 4.116 131.217 4.116ZM151.046 4.116C150.362 4.116 149.75 4.44 149.75 5.196V28.92C149.75 29.676 150.362 30 151.046 30C151.766 30 152.378 29.676 152.378 28.92V20.712L155.941 17.112L165.662 29.46C166.166 30.108 166.886 30.144 167.462 29.712C168.038 29.244 168.218 28.596 167.678 27.948L157.742 15.384L166.814 6.168C167.318 5.628 167.174 4.944 166.706 4.476C166.273 4.044 165.482 3.936 164.978 4.476L152.378 17.508V5.196C152.378 4.44 151.766 4.116 151.046 4.116Z"
              fill="black"/>
    </g>
    <defs>
        <filter id="filter0_d" x="0.916" y="0.0372505" width="174.085" height="38.0398" filterUnits="userSpaceOnUse"
                color-interpolation-filters="sRGB">
            <feFlood flood-opacity="0" result="BackgroundImageFix"/>
            <feColorMatrix in="SourceAlpha" type="matrix" values="0 0 0 0 0 0 0 0 0 0 0 0 0 0 0 0 0 0 127 0"/>
            <feOffset dx="1" dy="2"/>
            <feGaussianBlur stdDeviation="3"/>
            <feColorMatrix type="matrix" values="0 0 0 0 0 0 0 0 0 0 0 0 0 0 0 0 0 0 0.2 0"/>
            <feBlend mode="normal" in2="BackgroundImageFix" result="effect1_dropShadow"/>
            <feBlend mode="normal" in="SourceGraphic" in2="effect1_dropShadow" result="shape"/>
        </filter>
    </defs>
</svg>
