<svg xmlns="http://www.w3.org/2000/svg" fill="none" viewBox="0 0 175 39">
    <defs/>
    <g filter="url(#filter0_d)">
        <path fill="#000" d="M8.22 4.044c-1.224 0-2.304.612-2.304 1.98v22.068c0 1.368 1.08 1.98 2.304 1.98 1.224 0 2.304-.612 2.304-1.98v-6.588l2.628-2.7L21.54 29.28c.864 1.08 2.16.972 3.096.216 1.008-.792 1.26-2.016.324-3.096l-8.82-10.512 7.992-8.316c.792-.828.612-2.016-.18-2.844-.756-.792-2.088-.972-2.88-.108L10.524 15.96V6.024c0-1.368-1.08-1.98-2.304-1.98zm23.9766 0c-1.224 0-2.304.612-2.304 1.98v22.068c0 1.368 1.08 1.98 2.304 1.98 1.224 0 2.304-.612 2.304-1.98V6.024c0-1.368-1.08-1.98-2.304-1.98zm23.2214 0c-1.152 0-2.34.576-2.772 2.16L47.93 23.16 43.502 5.556c-.396-1.512-1.62-1.692-2.808-1.404-1.296.324-1.98 1.332-1.584 2.736l5.796 20.988c.432 1.62 1.62 2.196 2.772 2.196 1.116 0 2.34-.576 2.772-2.16l4.932-17.676 4.716 17.604c.432 1.656 1.62 2.232 2.736 2.232s2.304-.576 2.736-2.16l5.94-21.24c.36-1.296-.216-2.304-1.476-2.556-1.188-.252-2.304.216-2.628 1.512l-4.572 17.496-4.68-16.92c-.432-1.584-1.62-2.16-2.736-2.16zm22.9387 0c-1.224 0-2.304.612-2.304 1.98v22.068c0 1.368 1.08 1.98 2.304 1.98 1.224 0 2.304-.612 2.304-1.98V6.024c0-1.368-1.08-1.98-2.304-1.98zm24.6253.216H85.2341c-.648 0-.936.504-.936 1.152 0 .648.288 1.152.936 1.152h7.56V28.92c0 .756.612 1.08 1.296 1.08.72 0 1.332-.324 1.332-1.08V6.564h7.5599c.648 0 .936-.504.936-1.152 0-.648-.288-1.152-.936-1.152zm11.778-.144c-.72 0-1.296.288-1.62 1.152l-8.964 23.076c-.288.756.036 1.332.684 1.548.72.252 1.404.108 1.692-.648l2.736-7.2h10.8l2.7 7.164c.288.792 1.008.936 1.728.684.684-.216 1.044-.828.756-1.584l-8.928-23.04c-.324-.864-.864-1.152-1.584-1.152zm-.036 3.132c.504 1.62 1.152 3.42 1.908 5.364l2.664 7.2h-9.18l2.736-7.2c.792-2.016 1.368-3.636 1.872-5.364zm16.493-3.132c-.684 0-1.296.324-1.296 1.08V27.48c0 1.8.612 2.376 2.412 2.376h12.276c.684 0 .972-.504.972-1.152 0-.648-.288-1.152-.972-1.152h-12.06V5.196c0-.756-.612-1.08-1.332-1.08zm19.829 0c-.684 0-1.296.324-1.296 1.08V28.92c0 .756.612 1.08 1.296 1.08.72 0 1.332-.324 1.332-1.08v-8.208l3.563-3.6 9.721 12.348c.504.648 1.224.684 1.8.252.576-.468.756-1.116.216-1.764l-9.936-12.564 9.072-9.216c.504-.54.36-1.224-.108-1.692-.433-.432-1.224-.54-1.728 0l-12.6 13.032V5.196c0-.756-.612-1.08-1.332-1.08z"/>
    </g>
    <defs>
        <filter id="filter0_d" width="174.085" height="38.0398" x=".916" y=".0372505" color-interpolation-filters="sRGB" filterUnits="userSpaceOnUse">
            <feFlood flood-opacity="0" result="BackgroundImageFix"/>
            <feColorMatrix in="SourceAlpha" values="0 0 0 0 0 0 0 0 0 0 0 0 0 0 0 0 0 0 127 0"/>
            <feOffset dx="1" dy="2"/>
            <feGaussianBlur stdDeviation="3"/>
            <feColorMatrix values="0 0 0 0 0 0 0 0 0 0 0 0 0 0 0 0 0 0 0.2 0"/>
            <feBlend in2="BackgroundImageFix" result="effect1_dropShadow"/>
            <feBlend in="SourceGraphic" in2="effect1_dropShadow" result="shape"/>
        </filter>
    </defs>
</svg>
