<svg width="1920" height="1080" viewBox="0 0 1920 1080" fill="none" xmlns="http://www.w3.org/2000/svg">
    <path fill-rule="evenodd" clip-rule="evenodd"
          d="M1618.5 0H0V1649L4.90645e-05 836C4.90645e-05 836 32.5 926.535 158.5 916C221.263 910.752 251.713 875.261 283.01 838.781C319.032 796.795 356.176 753.5 445 753.5C529.76 753.5 564.854 721.172 599.203 689.529C632.127 659.199 664.367 629.5 739 629.5C844.4 629.5 894.5 627.5 949 547C980.154 500.984 981.373 457.318 982.479 417.659C983.64 376.063 984.678 338.874 1020 308C1074.77 260.124 1123.88 265.698 1200.82 274.434C1220.81 276.703 1242.67 279.186 1267 281C1379.48 289.388 1406.55 210.46 1430.92 139.398C1432.12 135.909 1433.31 132.44 1434.5 129C1460 55.5 1535.16 0 1618.5 0Z"
          fill="url(#paint0_linear)"/>
    <defs>
        <linearGradient id="paint0_linear" x1="0" y1="0" x2="1322.54" y2="849.508" gradientUnits="userSpaceOnUse">
            <stop offset="0" stop-color="#FFFFFF"/>
            <stop offset="1" stop-color="#FFFAE0"/>
        </linearGradient>
    </defs>
</svg>
