<svg width="18" height="18" viewBox="0 0 18 18" fill="none" xmlns="http://www.w3.org/2000/svg">
    <path fill-rule="evenodd" clip-rule="evenodd"
          d="M11.475 0.9C11.475 0.402944 11.8779 0 12.375 0H17.1C17.5971 0 18 0.402944 18 0.9V5.625C18 6.12206 17.5971 6.525 17.1 6.525C16.6029 6.525 16.2 6.12206 16.2 5.625V3.07279L8.2864 10.9864C7.93492 11.3379 7.36508 11.3379 7.0136 10.9864C6.66213 10.6349 6.66213 10.0651 7.0136 9.7136L14.9272 1.8H12.375C11.8779 1.8 11.475 1.39706 11.475 0.9ZM2.5875 4.5C2.37864 4.5 2.17834 4.58297 2.03065 4.73065C1.88297 4.87834 1.8 5.07864 1.8 5.2875V15.4125C1.8 15.6214 1.88297 15.8217 2.03065 15.9693C2.17834 16.117 2.37864 16.2 2.5875 16.2H12.7125C12.8159 16.2 12.9183 16.1796 13.0139 16.1401C13.1094 16.1005 13.1962 16.0425 13.2693 15.9693C13.3425 15.8962 13.4005 15.8094 13.4401 15.7139C13.4796 15.6183 13.5 15.5159 13.5 15.4125V7.65C13.5 7.15294 13.9029 6.75 14.4 6.75C14.8971 6.75 15.3 7.15294 15.3 7.65V15.4125C15.3 15.7523 15.2331 16.0888 15.103 16.4027C14.973 16.7166 14.7824 17.0019 14.5421 17.2421C14.3019 17.4824 14.0166 17.673 13.7027 17.803C13.3888 17.9331 13.0523 18 12.7125 18H2.5875C1.90125 18 1.24311 17.7274 0.757861 17.2421C0.272611 16.7569 0 16.0987 0 15.4125V5.2875C0 4.60125 0.272611 3.94311 0.757861 3.45786C1.24311 2.97261 1.90125 2.7 2.5875 2.7H9.65306C10.1501 2.7 10.5531 3.10294 10.5531 3.6C10.5531 4.09706 10.1501 4.5 9.65306 4.5H2.5875Z"
          fill="#404040"/>
</svg>
