<svg width="354" height="453" viewBox="0 0 354 453" fill="none" xmlns="http://www.w3.org/2000/svg">
<mask id="mask0_0_1" style="mask-type:alpha" maskUnits="userSpaceOnUse" x="-394" y="-268" width="1058" height="1075">
<path fill-rule="evenodd" clip-rule="evenodd" d="M423.928 -7.59994L-141.757 558.085L-146 553.843L419.685 -11.8426L423.928 -7.59994Z" fill="black"/>
<path fill-rule="evenodd" clip-rule="evenodd" d="M431.592 0.399999L-134.093 566.085L-138.336 561.843L427.349 -3.84264L431.592 0.399999Z" fill="black"/>
<path fill-rule="evenodd" clip-rule="evenodd" d="M439.256 8.40006L-126.429 574.085L-130.672 569.843L435.013 4.15742L439.256 8.40006Z" fill="black"/>
<path fill-rule="evenodd" clip-rule="evenodd" d="M446.92 16.4001L-118.765 582.085L-123.008 577.843L442.677 12.1574L446.92 16.4001Z" fill="black"/>
<path fill-rule="evenodd" clip-rule="evenodd" d="M454.928 24.4001L-110.757 590.085L-115 585.843L450.685 20.1574L454.928 24.4001Z" fill="black"/>
<path fill-rule="evenodd" clip-rule="evenodd" d="M462.592 32.4001L-103.093 598.085L-107.336 593.843L458.349 28.1574L462.592 32.4001Z" fill="black"/>
<path fill-rule="evenodd" clip-rule="evenodd" d="M470.256 40.4001L-95.4294 606.085L-99.672 601.843L466.013 36.1574L470.256 40.4001Z" fill="black"/>
<path fill-rule="evenodd" clip-rule="evenodd" d="M477.92 48.4001L-87.7654 614.085L-92.008 609.843L473.677 44.1574L477.92 48.4001Z" fill="black"/>
<path fill-rule="evenodd" clip-rule="evenodd" d="M485.928 56.4001L-79.7574 622.085L-84 617.843L481.685 52.1574L485.928 56.4001Z" fill="black"/>
<path fill-rule="evenodd" clip-rule="evenodd" d="M493.592 64.4001L-72.0934 630.085L-76.336 625.843L489.349 60.1574L493.592 64.4001Z" fill="black"/>
<path fill-rule="evenodd" clip-rule="evenodd" d="M501.256 72.4001L-64.4294 638.085L-68.672 633.843L497.013 68.1574L501.256 72.4001Z" fill="black"/>
<path fill-rule="evenodd" clip-rule="evenodd" d="M508.92 80.4001L-56.7654 646.085L-61.008 641.843L504.677 76.1574L508.92 80.4001Z" fill="black"/>
<path fill-rule="evenodd" clip-rule="evenodd" d="M516.928 88.4001L-48.7574 654.085L-53 649.843L512.685 84.1574L516.928 88.4001Z" fill="black"/>
<path fill-rule="evenodd" clip-rule="evenodd" d="M524.592 96.4001L-41.0934 662.085L-45.336 657.843L520.349 92.1574L524.592 96.4001Z" fill="black"/>
<path fill-rule="evenodd" clip-rule="evenodd" d="M532.256 104.4L-33.4294 670.085L-37.672 665.843L528.013 100.157L532.256 104.4Z" fill="black"/>
<path fill-rule="evenodd" clip-rule="evenodd" d="M539.92 112.4L-25.7654 678.085L-30.008 673.843L535.677 108.157L539.92 112.4Z" fill="black"/>
<path fill-rule="evenodd" clip-rule="evenodd" d="M547.928 120.4L-17.7574 686.085L-22 681.843L543.685 116.157L547.928 120.4Z" fill="black"/>
<path fill-rule="evenodd" clip-rule="evenodd" d="M555.592 128.4L-10.0934 694.085L-14.336 689.843L551.349 124.157L555.592 128.4Z" fill="black"/>
<path fill-rule="evenodd" clip-rule="evenodd" d="M563.256 136.4L-2.42936 702.085L-6.672 697.843L559.013 132.157L563.256 136.4Z" fill="black"/>
<path fill-rule="evenodd" clip-rule="evenodd" d="M570.92 144.4L5.23465 710.085L0.992004 705.843L566.677 140.157L570.92 144.4Z" fill="black"/>
<path fill-rule="evenodd" clip-rule="evenodd" d="M578.928 152.4L13.2426 718.085L9 713.843L574.685 148.157L578.928 152.4Z" fill="black"/>
<path fill-rule="evenodd" clip-rule="evenodd" d="M586.592 160.4L20.9066 726.085L16.664 721.843L582.349 156.157L586.592 160.4Z" fill="black"/>
<path fill-rule="evenodd" clip-rule="evenodd" d="M594.256 168.4L28.5706 734.085L24.328 729.843L590.013 164.157L594.256 168.4Z" fill="black"/>
<path fill-rule="evenodd" clip-rule="evenodd" d="M601.92 176.4L36.2346 742.085L31.992 737.843L597.677 172.157L601.92 176.4Z" fill="black"/>
<path fill-rule="evenodd" clip-rule="evenodd" d="M609.928 184.4L44.2426 750.085L40 745.843L605.685 180.157L609.928 184.4Z" fill="black"/>
<path fill-rule="evenodd" clip-rule="evenodd" d="M617.592 192.4L51.9066 758.085L47.664 753.843L613.349 188.157L617.592 192.4Z" fill="black"/>
<path fill-rule="evenodd" clip-rule="evenodd" d="M625.256 200.4L59.5706 766.085L55.328 761.843L621.013 196.157L625.256 200.4Z" fill="black"/>
<path fill-rule="evenodd" clip-rule="evenodd" d="M632.92 208.4L67.2346 774.085L62.992 769.843L628.677 204.157L632.92 208.4Z" fill="black"/>
<path fill-rule="evenodd" clip-rule="evenodd" d="M640.928 216.4L75.2426 782.085L71 777.843L636.685 212.157L640.928 216.4Z" fill="black"/>
<path fill-rule="evenodd" clip-rule="evenodd" d="M648.592 224.4L82.9066 790.085L78.664 785.843L644.349 220.157L648.592 224.4Z" fill="black"/>
<path fill-rule="evenodd" clip-rule="evenodd" d="M656.256 232.4L90.5706 798.085L86.328 793.843L652.013 228.157L656.256 232.4Z" fill="black"/>
<path fill-rule="evenodd" clip-rule="evenodd" d="M663.92 240.4L98.2346 806.085L93.992 801.843L659.677 236.157L663.92 240.4Z" fill="black"/>
<path fill-rule="evenodd" clip-rule="evenodd" d="M175.928 -263.6L-389.757 302.085L-394 297.843L171.685 -267.843L175.928 -263.6Z" fill="black"/>
<path fill-rule="evenodd" clip-rule="evenodd" d="M183.592 -255.6L-382.093 310.085L-386.336 305.843L179.349 -259.843L183.592 -255.6Z" fill="black"/>
<path fill-rule="evenodd" clip-rule="evenodd" d="M191.256 -247.6L-374.429 318.085L-378.672 313.843L187.013 -251.843L191.256 -247.6Z" fill="black"/>
<path fill-rule="evenodd" clip-rule="evenodd" d="M198.92 -239.6L-366.765 326.085L-371.008 321.843L194.677 -243.843L198.92 -239.6Z" fill="black"/>
<path fill-rule="evenodd" clip-rule="evenodd" d="M206.928 -231.6L-358.757 334.085L-363 329.843L202.685 -235.843L206.928 -231.6Z" fill="black"/>
<path fill-rule="evenodd" clip-rule="evenodd" d="M214.592 -223.6L-351.093 342.085L-355.336 337.843L210.349 -227.843L214.592 -223.6Z" fill="black"/>
<path fill-rule="evenodd" clip-rule="evenodd" d="M222.256 -215.6L-343.429 350.085L-347.672 345.843L218.013 -219.843L222.256 -215.6Z" fill="black"/>
<path fill-rule="evenodd" clip-rule="evenodd" d="M229.92 -207.6L-335.765 358.085L-340.008 353.843L225.677 -211.843L229.92 -207.6Z" fill="black"/>
<path fill-rule="evenodd" clip-rule="evenodd" d="M237.928 -199.6L-327.757 366.085L-332 361.843L233.685 -203.843L237.928 -199.6Z" fill="black"/>
<path fill-rule="evenodd" clip-rule="evenodd" d="M245.592 -191.6L-320.093 374.085L-324.336 369.843L241.349 -195.843L245.592 -191.6Z" fill="black"/>
<path fill-rule="evenodd" clip-rule="evenodd" d="M253.256 -183.6L-312.429 382.085L-316.672 377.843L249.013 -187.843L253.256 -183.6Z" fill="black"/>
<path fill-rule="evenodd" clip-rule="evenodd" d="M260.92 -175.6L-304.765 390.085L-309.008 385.843L256.677 -179.843L260.92 -175.6Z" fill="black"/>
<path fill-rule="evenodd" clip-rule="evenodd" d="M268.928 -167.6L-296.757 398.085L-301 393.843L264.685 -171.843L268.928 -167.6Z" fill="black"/>
<path fill-rule="evenodd" clip-rule="evenodd" d="M276.592 -159.6L-289.093 406.085L-293.336 401.843L272.349 -163.843L276.592 -159.6Z" fill="black"/>
<path fill-rule="evenodd" clip-rule="evenodd" d="M284.256 -151.6L-281.429 414.085L-285.672 409.843L280.013 -155.843L284.256 -151.6Z" fill="black"/>
<path fill-rule="evenodd" clip-rule="evenodd" d="M291.92 -143.6L-273.765 422.085L-278.008 417.843L287.677 -147.843L291.92 -143.6Z" fill="black"/>
<path fill-rule="evenodd" clip-rule="evenodd" d="M299.928 -135.6L-265.757 430.085L-270 425.843L295.685 -139.843L299.928 -135.6Z" fill="black"/>
<path fill-rule="evenodd" clip-rule="evenodd" d="M307.592 -127.6L-258.093 438.085L-262.336 433.843L303.349 -131.843L307.592 -127.6Z" fill="black"/>
<path fill-rule="evenodd" clip-rule="evenodd" d="M315.256 -119.6L-250.429 446.085L-254.672 441.843L311.013 -123.843L315.256 -119.6Z" fill="black"/>
<path fill-rule="evenodd" clip-rule="evenodd" d="M322.92 -111.6L-242.765 454.085L-247.008 449.843L318.677 -115.843L322.92 -111.6Z" fill="black"/>
<path fill-rule="evenodd" clip-rule="evenodd" d="M330.928 -103.6L-234.757 462.085L-239 457.843L326.685 -107.843L330.928 -103.6Z" fill="black"/>
<path fill-rule="evenodd" clip-rule="evenodd" d="M338.592 -95.5999L-227.093 470.085L-231.336 465.843L334.349 -99.8426L338.592 -95.5999Z" fill="black"/>
<path fill-rule="evenodd" clip-rule="evenodd" d="M346.256 -87.5999L-219.429 478.085L-223.672 473.843L342.013 -91.8426L346.256 -87.5999Z" fill="black"/>
<path fill-rule="evenodd" clip-rule="evenodd" d="M353.92 -79.5999L-211.765 486.085L-216.008 481.843L349.677 -83.8426L353.92 -79.5999Z" fill="black"/>
<path fill-rule="evenodd" clip-rule="evenodd" d="M361.928 -71.5999L-203.757 494.085L-208 489.843L357.685 -75.8426L361.928 -71.5999Z" fill="black"/>
<path fill-rule="evenodd" clip-rule="evenodd" d="M369.592 -63.5999L-196.093 502.085L-200.336 497.843L365.349 -67.8426L369.592 -63.5999Z" fill="black"/>
<path fill-rule="evenodd" clip-rule="evenodd" d="M377.256 -55.5999L-188.429 510.085L-192.672 505.843L373.013 -59.8426L377.256 -55.5999Z" fill="black"/>
<path fill-rule="evenodd" clip-rule="evenodd" d="M384.92 -47.5999L-180.765 518.085L-185.008 513.843L380.677 -51.8426L384.92 -47.5999Z" fill="black"/>
<path fill-rule="evenodd" clip-rule="evenodd" d="M392.928 -39.5999L-172.757 526.085L-177 521.843L388.685 -43.8426L392.928 -39.5999Z" fill="black"/>
<path fill-rule="evenodd" clip-rule="evenodd" d="M400.592 -31.5999L-165.093 534.085L-169.336 529.843L396.349 -35.8426L400.592 -31.5999Z" fill="black"/>
<path fill-rule="evenodd" clip-rule="evenodd" d="M408.256 -23.5999L-157.429 542.085L-161.672 537.843L404.013 -27.8426L408.256 -23.5999Z" fill="black"/>
<path fill-rule="evenodd" clip-rule="evenodd" d="M415.92 -15.5999L-149.765 550.085L-154.008 545.843L411.677 -19.8426L415.92 -15.5999Z" fill="black"/>
</mask>
<g mask="url(#mask0_0_1)">
<path d="M131 68C131 114.944 92.9442 153 46 153C-0.944206 153 -39 114.944 -39 68C-39 21.0558 -0.944206 -17 46 -17C92.9442 -17 131 21.0558 131 68Z" fill="url(#paint0_linear_0_1)" fill-opacity="0.5"/>
<path d="M230.599 282.872C231.553 284.012 233.14 284.407 234.517 283.864C269.425 270.111 309.042 280.206 333.153 308.958C350.084 329.179 356.886 355.656 351.815 381.589C346.744 407.521 330.149 429.639 306.264 442.277C275.775 458.435 238.742 454.686 211.959 432.732C194.209 418.223 182.907 397.992 180.126 375.761C179.573 371.412 176.357 367.786 172.111 366.745C160.673 363.934 150.655 357.673 143.116 348.582C142.483 347.783 141.878 347.105 141.345 346.51C139.963 344.903 138.949 343.777 137.855 341.784C135.448 337.401 132.901 330.395 131.795 325.028C129.964 316.14 134.87 284.105 150.743 271.245C173.776 252.571 207.994 255.876 227.029 278.609L230.599 282.872Z" fill="url(#paint1_linear_0_1)" fill-opacity="0.5"/>
</g>
<defs>
<linearGradient id="paint0_linear_0_1" x1="3.4536" y1="-11.1084" x2="27.5663" y2="155.665" gradientUnits="userSpaceOnUse">
<stop stop-color="#FFD500"/>
<stop offset="1" stop-color="#FFFDF3"/>
</linearGradient>
<linearGradient id="paint1_linear_0_1" x1="144.5" y1="287" x2="322.286" y2="431.499" gradientUnits="userSpaceOnUse">
<stop stop-color="#FFD500"/>
<stop offset="1" stop-color="#FFFDF3"/>
</linearGradient>
</defs>
</svg>
