<svg width="1em" height="1em" viewBox="0 0 24 24" fill="none" xmlns="http://www.w3.org/2000/svg">
<path d="M14.253 22.8082L11.453 19.3082H6.25299C5.70071 19.3082 5.25299 18.8605 5.25299 18.3082V7.41073C5.25299 6.85845 5.70071 6.41073 6.25299 6.41073H22.253C22.8053 6.41073 23.253 6.85845 23.253 7.41073V18.3082C23.253 18.8605 22.8053 19.3082 22.253 19.3082H17.053L14.253 22.8082ZM16.0917 17.3082H21.253V8.41073H7.25299V17.3082H11.453H12.4143L14.253 19.6066L16.0917 17.3082ZM2.25299 2.30817H19.253V4.30817H3.25299V15.3082H1.25299V3.30817C1.25299 2.75589 1.70071 2.30817 2.25299 2.30817Z" fill="currentColor"/>
</svg>
