<svg width="18" height="18" viewBox="0 0 18 18" fill="none" xmlns="http://www.w3.org/2000/svg">
    <path fill-rule="evenodd" clip-rule="evenodd"
          d="M6.46379 1.97573C6.79602 1.0002 7.67734 0 8.99975 0C10.3235 0 11.2042 1.00173 11.5376 1.97572C12.2479 2.27886 13.0822 2.76281 13.743 3.62715C14.4401 4.53903 14.8793 5.78858 14.8793 7.49488C14.8793 9.13094 15.0526 9.99514 15.2893 10.5686C15.4975 11.0731 15.7658 11.3985 16.1881 11.9106C16.2495 11.985 16.3141 12.0634 16.3823 12.1468C17.32 13.2955 16.4222 14.8846 15.016 14.8846H12.3807C12.3154 15.6829 11.9691 16.4358 11.3985 17.0064C10.7623 17.6426 9.89945 18 8.99975 18C8.10006 18 7.23721 17.6426 6.60103 17.0064C6.03045 16.4358 5.68411 15.6829 5.61876 14.8846H2.98745C1.58615 14.8846 0.671207 13.3045 1.61719 12.1468C1.68541 12.0633 1.75013 11.9848 1.81155 11.9104C2.23375 11.3984 2.50217 11.073 2.71059 10.5684C2.94751 9.99481 3.12117 9.13009 3.12215 7.49436C3.12224 5.78717 3.5608 4.53778 4.25798 3.62617C4.9189 2.76197 5.75347 2.27887 6.46379 1.97573ZM3.17715 13.0846L3.18946 13.0698C3.60651 12.5677 4.05557 12.0271 4.37426 11.2556C4.74083 10.3681 4.92114 9.23368 4.92215 7.4954C4.92215 6.10967 5.27176 5.2636 5.68777 4.71965C6.11125 4.16592 6.67065 3.83651 7.24152 3.60143C7.62308 3.44444 8.00811 3.09563 8.14987 2.61261L8.15053 2.61037C8.30641 2.07407 8.68415 1.8 8.99975 1.8C9.31539 1.8 9.6935 2.07381 9.85166 2.6121L9.85234 2.61439C9.99313 3.0889 10.3733 3.44239 10.76 3.60146C11.3293 3.83585 11.8891 4.16589 12.313 4.72041C12.7295 5.26517 13.0793 6.11111 13.0793 7.49488C13.0793 9.23317 13.2591 10.3677 13.6254 11.2553C13.9439 12.0271 14.3931 12.5678 14.8101 13.0699L14.8224 13.0846H3.17715ZM7.4317 14.8846C7.48812 15.2041 7.6413 15.5011 7.87382 15.7336C8.17244 16.0322 8.57745 16.2 8.99975 16.2C9.42206 16.2 9.82707 16.0322 10.1257 15.7336C10.3582 15.5011 10.5114 15.2041 10.5678 14.8846H7.4317Z"
          fill="#D5D5D5"/>
</svg>
