<svg width="48" height="10" viewBox="0 0 48 10" fill="none" xmlns="http://www.w3.org/2000/svg">
    <path d="M1.74 0.348C1.948 0.348 2.128 0.4 2.28 0.504C2.432 0.608 2.508 0.776 2.508 1.008V4.32L6.024 0.539999C6.16 0.395999 6.32 0.332 6.504 0.348C6.696 0.364 6.856 0.44 6.984 0.576C7.12 0.711999 7.196 0.871999 7.212 1.056C7.236 1.232 7.18 1.388 7.044 1.524L4.38 4.296L7.32 7.8C7.48 7.984 7.544 8.168 7.512 8.352C7.48 8.536 7.38 8.696 7.212 8.832C7.052 8.96 6.876 9.024 6.684 9.024C6.492 9.032 6.324 8.944 6.18 8.76L3.384 5.268L2.508 6.168V8.364C2.508 8.596 2.432 8.764 2.28 8.868C2.128 8.972 1.948 9.024 1.74 9.024C1.532 9.024 1.352 8.972 1.2 8.868C1.048 8.764 0.972 8.596 0.972 8.364V1.008C0.972 0.776 1.048 0.608 1.2 0.504C1.352 0.4 1.532 0.348 1.74 0.348ZM9.68419 2.508C9.88419 2.508 10.0602 2.56 10.2122 2.664C10.3642 2.768 10.4402 2.928 10.4402 3.144V8.388C10.4402 8.604 10.3642 8.764 10.2122 8.868C10.0602 8.972 9.88419 9.024 9.68419 9.024C9.49219 9.024 9.31619 8.972 9.15619 8.868C9.00419 8.764 8.92819 8.604 8.92819 8.388V3.144C8.92819 2.928 9.00419 2.768 9.15619 2.664C9.31619 2.56 9.49219 2.508 9.68419 2.508ZM9.68419 0.0239997C9.94819 0.0239997 10.1722 0.112 10.3562 0.288C10.5402 0.464 10.6322 0.679999 10.6322 0.935999C10.6322 1.192 10.5402 1.408 10.3562 1.584C10.1722 1.76 9.94819 1.848 9.68419 1.848C9.42019 1.848 9.19619 1.76 9.01219 1.584C8.82819 1.408 8.73619 1.192 8.73619 0.935999C8.73619 0.679999 8.82819 0.464 9.01219 0.288C9.19619 0.112 9.42019 0.0239997 9.68419 0.0239997ZM16.1429 2.508C16.3189 2.508 16.4909 2.564 16.6589 2.676C16.8269 2.78 16.9429 2.968 17.0069 3.24L17.9909 7.464H18.0389L18.9869 3.072C19.0429 2.816 19.1549 2.652 19.3229 2.58C19.4989 2.508 19.6829 2.492 19.8749 2.532C20.0829 2.58 20.2349 2.68 20.3309 2.832C20.4349 2.984 20.4549 3.18 20.3909 3.42L19.1669 8.208C19.0869 8.504 18.9589 8.716 18.7829 8.844C18.6069 8.964 18.3789 9.024 18.0989 9.024C17.8189 9.024 17.5869 8.96 17.4029 8.832C17.2269 8.704 17.1029 8.5 17.0309 8.22L16.1309 4.536H16.0829L15.1709 8.22C15.0989 8.5 14.9709 8.704 14.7869 8.832C14.6109 8.96 14.3829 9.024 14.1029 9.024C13.8229 9.024 13.5909 8.96 13.4069 8.832C13.2309 8.704 13.1069 8.5 13.0349 8.22L11.8109 3.456C11.7469 3.216 11.7669 3.016 11.8709 2.856C11.9749 2.688 12.1389 2.58 12.3629 2.532C12.5709 2.492 12.7669 2.508 12.9509 2.58C13.1349 2.652 13.2549 2.828 13.3109 3.108L14.1749 7.464H14.2229L15.2549 3.264C15.3189 2.984 15.4349 2.788 15.6029 2.676C15.7789 2.564 15.9589 2.508 16.1429 2.508ZM22.5045 2.508C22.7045 2.508 22.8805 2.56 23.0325 2.664C23.1845 2.768 23.2605 2.928 23.2605 3.144V8.388C23.2605 8.604 23.1845 8.764 23.0325 8.868C22.8805 8.972 22.7045 9.024 22.5045 9.024C22.3125 9.024 22.1365 8.972 21.9765 8.868C21.8245 8.764 21.7485 8.604 21.7485 8.388V3.144C21.7485 2.928 21.8245 2.768 21.9765 2.664C22.1365 2.56 22.3125 2.508 22.5045 2.508ZM22.5045 0.0239997C22.7685 0.0239997 22.9925 0.112 23.1765 0.288C23.3605 0.464 23.4525 0.679999 23.4525 0.935999C23.4525 1.192 23.3605 1.408 23.1765 1.584C22.9925 1.76 22.7685 1.848 22.5045 1.848C22.2405 1.848 22.0165 1.76 21.8325 1.584C21.6485 1.408 21.5565 1.192 21.5565 0.935999C21.5565 0.679999 21.6485 0.464 21.8325 0.288C22.0165 0.112 22.2405 0.0239997 22.5045 0.0239997ZM30.4632 0.42C30.6472 0.42 30.7832 0.483999 30.8712 0.611999C30.9592 0.74 31.0032 0.892 31.0032 1.068C31.0032 1.244 30.9592 1.396 30.8712 1.524C30.7832 1.652 30.6472 1.716 30.4632 1.716H28.3992V8.364C28.3992 8.596 28.3232 8.764 28.1712 8.868C28.0192 8.972 27.8392 9.024 27.6312 9.024C27.4232 9.024 27.2432 8.972 27.0912 8.868C26.9392 8.764 26.8632 8.596 26.8632 8.364V1.716H24.7872C24.6032 1.716 24.4672 1.652 24.3792 1.524C24.2912 1.396 24.2472 1.244 24.2472 1.068C24.2472 0.892 24.2912 0.74 24.3792 0.611999C24.4672 0.483999 24.6032 0.42 24.7872 0.42H30.4632ZM33.541 6.228C33.141 6.228 32.861 6.304 32.701 6.456C32.549 6.608 32.473 6.812 32.473 7.068V7.092C32.473 7.556 32.773 7.788 33.373 7.788C33.845 7.788 34.217 7.708 34.489 7.548C34.681 7.436 34.817 7.304 34.897 7.152C34.985 7 35.029 6.796 35.029 6.54V6.228H33.541ZM33.853 2.436C34.237 2.436 34.593 2.484 34.921 2.58C35.249 2.676 35.529 2.816 35.761 3C36.001 3.176 36.185 3.396 36.313 3.66C36.449 3.916 36.517 4.212 36.517 4.548V8.448C36.517 8.648 36.445 8.796 36.301 8.892C36.165 8.98 36.009 9.024 35.833 9.024C35.657 9.024 35.497 8.98 35.353 8.892C35.217 8.796 35.149 8.648 35.149 8.448V8.136H35.137C35.073 8.272 34.981 8.392 34.861 8.496C34.741 8.6 34.597 8.696 34.429 8.784C34.269 8.864 34.085 8.928 33.877 8.976C33.669 9.024 33.461 9.048 33.253 9.048C32.533 9.048 31.977 8.884 31.585 8.556C31.201 8.228 31.009 7.764 31.009 7.164V6.972C31.009 6.7 31.049 6.448 31.129 6.216C31.217 5.984 31.357 5.784 31.549 5.616C31.749 5.44 32.005 5.304 32.317 5.208C32.637 5.112 33.033 5.064 33.505 5.064H35.017V4.896C35.017 4.488 34.921 4.196 34.729 4.02C34.545 3.836 34.249 3.744 33.841 3.744C33.297 3.744 32.785 3.888 32.305 4.176C32.145 4.272 31.985 4.3 31.825 4.26C31.673 4.212 31.549 4.108 31.453 3.948C31.365 3.796 31.329 3.64 31.345 3.48C31.369 3.312 31.461 3.176 31.621 3.072C31.909 2.88 32.245 2.728 32.629 2.616C33.021 2.496 33.429 2.436 33.853 2.436ZM38.9802 0.0479994C39.1802 0.0479994 39.3562 0.0999994 39.5082 0.204C39.6602 0.308 39.7362 0.472 39.7362 0.696V8.376C39.7362 8.6 39.6602 8.764 39.5082 8.868C39.3562 8.972 39.1802 9.024 38.9802 9.024C38.7802 9.024 38.6042 8.972 38.4522 8.868C38.3002 8.764 38.2242 8.6 38.2242 8.376V0.696C38.2242 0.472 38.3002 0.308 38.4522 0.204C38.6042 0.0999994 38.7802 0.0479994 38.9802 0.0479994ZM42.2966 0.0479994C42.4966 0.0479994 42.6726 0.0999994 42.8246 0.204C42.9766 0.308 43.0526 0.468 43.0526 0.684V5.268L45.6326 2.724C45.7846 2.572 45.9606 2.504 46.1606 2.52C46.3686 2.528 46.5406 2.604 46.6766 2.748C46.8126 2.908 46.8806 3.08 46.8806 3.264C46.8886 3.448 46.8126 3.608 46.6526 3.744L44.8766 5.352L46.9646 7.812C47.1086 7.98 47.1646 8.16 47.1326 8.352C47.1006 8.536 47.0086 8.692 46.8566 8.82C46.6966 8.956 46.5126 9.024 46.3046 9.024C46.1046 9.024 45.9366 8.94 45.8006 8.772L43.7966 6.288L43.0526 6.96V8.388C43.0526 8.604 42.9766 8.764 42.8246 8.868C42.6726 8.972 42.4966 9.024 42.2966 9.024C42.1046 9.024 41.9286 8.972 41.7686 8.868C41.6166 8.764 41.5406 8.604 41.5406 8.388V0.684C41.5406 0.468 41.6166 0.308 41.7686 0.204C41.9286 0.0999994 42.1046 0.0479994 42.2966 0.0479994Z"
          fill="black" fill-opacity="0.42"/>
</svg>
