<svg width="1em" height="1em" xmlns="http://www.w3.org/2000/svg" viewBox="0 0 18 18" fill="none">
  <path d="M14.25 0V2.25H12V3.75H14.25V6H15.75V3.75H18V2.25H15.75V0H14.25Z" fill="currentColor"/>
  <path d="M5.46838 15.6181L1.5 16.5L2.38186 12.5316C1.81908 11.4792 1.5 10.2769 1.5 9C1.5 4.85786 4.85786 1.5 9 1.5C9.5137 1.5 10.0153 1.55165 10.5 1.65003V3.18902C10.0206 3.06563 9.51795 3 9 3C5.68629 3 3 5.68629 3 9C3 10.0009 3.24412 10.9631 3.70462 11.8243L3.96672 12.3144L3.47562 14.5244L5.68556 14.0333L6.17571 14.2954C7.03686 14.7559 7.99913 15 9 15C12.3137 15 15 12.3137 15 9C15 8.48205 14.9344 7.97943 14.811 7.5H16.35C16.4484 7.98466 16.5 8.4863 16.5 9C16.5 13.1421 13.1421 16.5 9 16.5C7.72312 16.5 6.5208 16.181 5.46838 15.6181Z" fill="currentColor"/>
</svg>