<svg width="679" height="540" viewBox="0 0 679 540" fill="none" preserveAspectRatio="xMinYMin meet" xmlns="http://www.w3.org/2000/svg">
    <path d="M383.889 79.002C388.872 78.1938 392.256 73.5015 391.447 68.5214C390.639 63.5414 385.944 60.1595 380.961 60.9677C375.978 61.7759 372.594 66.4682 373.403 71.4483C374.212 76.4283 378.907 79.8102 383.889 79.002Z"
          fill="currentColor"/>
    <path d="M639.495 214.326C627.065 197.396 612.136 182.476 595.197 170.052C578.928 158.116 561.074 148.737 542.124 142.038V133.025C542.124 97.8856 528.536 64.6951 503.858 39.6652C479.18 14.6353 446.276 0.567415 411.178 0.0193156C386.439 -0.406984 362.127 6.23111 340.8 19.1419C320.083 31.6873 303.143 49.531 291.688 70.7242C290.043 73.7692 286.387 75.0481 283.157 73.7083C248.669 59.5186 172.137 38.0818 47.2233 54.5248L0 60.7366L47.2233 66.583C47.7108 66.6439 99.0776 73.0384 153.186 82.4779C240.382 97.7029 267.68 108.848 276.15 114.816C275.601 119.201 275.662 122.733 275.784 126.691C275.845 128.457 275.845 130.284 275.845 132.416C275.723 161.161 284.62 188.566 301.62 211.647C304.362 215.423 304.545 220.599 301.986 224.497C273.469 268.771 263.232 322.302 273.286 375.163C280.72 414.261 299.365 450.009 327.151 478.571C354.998 507.194 390.278 526.682 429.214 534.965C444.326 538.193 459.376 539.776 474.305 539.776C490.94 539.776 507.453 537.766 523.6 533.747C552.787 526.5 579.476 513.224 602.935 494.284C651.256 455.186 678.98 397.209 678.98 335.091C678.98 291.365 665.331 249.527 639.495 214.326ZM595.258 484.844C549.801 521.628 490.209 535.513 431.713 523.089C357.069 507.194 299.548 448.243 285.29 372.91C275.845 323.094 285.412 272.729 312.222 231.074C317.463 222.913 317.158 212.195 311.43 204.4C296.014 183.45 287.91 158.542 288.032 132.416C288.032 130.163 287.971 128.153 287.971 126.387C287.849 121.698 287.788 118.287 288.763 113.415C288.824 113.232 288.824 113.111 288.824 112.928L290.408 111.04L287.544 108.482C286.935 107.691 286.143 107.021 285.29 106.472C277.673 100.078 261.099 93.6835 234.776 86.8627C214.059 81.5035 187.248 75.9616 155.197 70.4197C135.82 67.0702 116.87 64.0252 100.357 61.5892C192.062 56.4736 249.949 73.1602 278.343 84.853C287.362 88.5679 297.659 84.9139 302.29 76.3879C324.043 36.0112 365.661 11.3467 410.873 12.0775C476.499 13.1128 529.876 67.3138 529.876 132.903V145.205C529.876 148.493 531.948 151.417 535.117 152.452C613.903 178.639 666.794 252.084 666.794 335.091C666.794 393.555 640.714 448.121 595.258 484.844Z"
          fill="currentColor"/>
</svg>
