<svg xmlns="http://www.w3.org/2000/svg" width="1em" height="1em" viewBox="0 0 36 36" fill="none">
  <path d="M23.2527 30.007C22.2648 32.3762 20.3691 34.272 18 35.2599C15.6309 34.272 13.7352 32.3762 12.7472 30.007H16.1362C16.6257 30.74 17.2577 31.3757 18 31.872C18.7423 31.3757 19.3743 30.74 19.8638 30.007H23.2527ZM27 22.2143L30 25.6166V28.507H6V25.6166L9 22.2143V13.5071C9 8.28225 12.7566 3.83729 18 2.18994C23.2434 3.83729 27 8.28225 27 13.5071V22.2143ZM25.9038 25.5071L24 23.348V13.5071C24 10.0304 21.6438 6.86142 18 5.37572C14.3562 6.86142 12 10.0304 12 13.5071V23.348L10.0961 25.5071H25.9038ZM18 16.5071C16.3431 16.5071 15 15.164 15 13.5071C15 11.8503 16.3431 10.5071 18 10.5071C19.6569 10.5071 21 11.8503 21 13.5071C21 15.164 19.6569 16.5071 18 16.5071Z" fill="currentColor"/>
</svg>