<svg width="1em" height="1em" xmlns="http://www.w3.org/2000/svg" viewBox="0 0 36 36" fill="none">
  <path d="M9 12V10.5C9 5.52944 13.0294 1.5 18 1.5C22.9706 1.5 27 5.52944 27 10.5V12H30C30.8284 12 31.5 12.6716 31.5 13.5V31.5C31.5 32.3284 30.8284 33 30 33H6C5.17158 33 4.5 32.3284 4.5 31.5V13.5C4.5 12.6716 5.17158 12 6 12H9ZM28.5 15H7.5V30H28.5V15ZM16.5 23.5986C15.6033 23.0799 15 22.1105 15 21C15 19.3431 16.3431 18 18 18C19.6569 18 21 19.3431 21 21C21 22.1105 20.3967 23.0799 19.5 23.5986V27H16.5V23.5986ZM12 12H24V10.5C24 7.18629 21.3137 4.5 18 4.5C14.6863 4.5 12 7.18629 12 10.5V12Z" fill="currentColor"/>
</svg>