<svg width="1em" height="1em" xmlns="http://www.w3.org/2000/svg" viewBox="0 0 36 36" fill="none">
  <path d="M27 3C27.8284 3 28.5 3.67158 28.5 4.5V15H25.5V6H10.5V30H18V33H9C8.17158 33 7.5 32.3284 7.5 31.5V4.5C7.5 3.67158 8.17158 3 9 3H27ZM27 18C29.4853 18 31.5 20.0147 31.5 22.5V24H33V31.5C33 32.3284 32.3284 33 31.5 33H22.5C21.6715 33 21 32.3284 21 31.5V24H22.5V22.5C22.5 20.0147 24.5147 18 27 18ZM30 27H24V30H30V27ZM27 21C26.2379 21 25.5 21.675 25.5 22.5V24H28.5V22.5C28.5 21.6716 27.8284 21 27 21Z" fill="currentColor"/>
</svg>